<mxfile host="www.draw.io" modified="2020-09-02T03:33:21.575Z" agent="5.0 (Windows NT 10.0; Win64; x64) AppleWebKit/537.36 (KHTML, like Gecko) Chrome/80.0.3987.149 Safari/537.36" etag="UWAxxF5H1Spxl2TZXgE-" version="13.6.5" type="github">
  <diagram id="2dmpeXrvK79N1orJCc7h" name="Page-1">
    <mxGraphModel dx="1178" dy="613" grid="1" gridSize="10" guides="1" tooltips="1" connect="1" arrows="1" fold="1" page="1" pageScale="1" pageWidth="827" pageHeight="1169" math="0" shadow="0">
      <root>
        <mxCell id="0" />
        <mxCell id="1" parent="0" />
        <mxCell id="uYfRyXN79F69b4HjjZU2-1" value="Server/node_id" style="rounded=0;whiteSpace=wrap;html=1;align=left;verticalAlign=top;" vertex="1" parent="1">
          <mxGeometry x="110" y="265" width="280" height="395" as="geometry" />
        </mxCell>
        <mxCell id="uYfRyXN79F69b4HjjZU2-2" value="Dev/rank" style="rounded=0;whiteSpace=wrap;html=1;align=left;verticalAlign=top;" vertex="1" parent="1">
          <mxGeometry x="140" y="310" width="190" height="130" as="geometry" />
        </mxCell>
        <mxCell id="uYfRyXN79F69b4HjjZU2-3" value="Cluster/cluster_id" style="rounded=0;whiteSpace=wrap;html=1;align=left;verticalAlign=top;" vertex="1" parent="1">
          <mxGeometry x="160" y="360" width="110" height="40" as="geometry" />
        </mxCell>
        <mxCell id="uYfRyXN79F69b4HjjZU2-14" value="Cluster/cluster_id" style="rounded=0;whiteSpace=wrap;html=1;align=left;verticalAlign=top;" vertex="1" parent="1">
          <mxGeometry x="170" y="370" width="110" height="40" as="geometry" />
        </mxCell>
        <mxCell id="uYfRyXN79F69b4HjjZU2-15" value="Cluster/cluster_id" style="rounded=0;whiteSpace=wrap;html=1;align=left;verticalAlign=top;" vertex="1" parent="1">
          <mxGeometry x="180" y="380" width="110" height="40" as="geometry" />
        </mxCell>
        <mxCell id="uYfRyXN79F69b4HjjZU2-16" value="Cluster/cluster_id" style="rounded=0;whiteSpace=wrap;html=1;align=left;verticalAlign=top;" vertex="1" parent="1">
          <mxGeometry x="190" y="390" width="110" height="40" as="geometry" />
        </mxCell>
        <mxCell id="uYfRyXN79F69b4HjjZU2-17" value="Dev/rank" style="rounded=0;whiteSpace=wrap;html=1;align=left;verticalAlign=top;" vertex="1" parent="1">
          <mxGeometry x="150" y="320" width="190" height="130" as="geometry" />
        </mxCell>
        <mxCell id="uYfRyXN79F69b4HjjZU2-18" value="Cluster/cluster_id" style="rounded=0;whiteSpace=wrap;html=1;align=left;verticalAlign=top;" vertex="1" parent="1">
          <mxGeometry x="170" y="370" width="110" height="40" as="geometry" />
        </mxCell>
        <mxCell id="uYfRyXN79F69b4HjjZU2-19" value="Cluster/cluster_id" style="rounded=0;whiteSpace=wrap;html=1;align=left;verticalAlign=top;" vertex="1" parent="1">
          <mxGeometry x="180" y="380" width="110" height="40" as="geometry" />
        </mxCell>
        <mxCell id="uYfRyXN79F69b4HjjZU2-20" value="Cluster/cluster_id" style="rounded=0;whiteSpace=wrap;html=1;align=left;verticalAlign=top;" vertex="1" parent="1">
          <mxGeometry x="190" y="390" width="110" height="40" as="geometry" />
        </mxCell>
        <mxCell id="uYfRyXN79F69b4HjjZU2-21" value="Cluster/cluster_id" style="rounded=0;whiteSpace=wrap;html=1;align=left;verticalAlign=top;" vertex="1" parent="1">
          <mxGeometry x="200" y="400" width="110" height="40" as="geometry" />
        </mxCell>
        <mxCell id="uYfRyXN79F69b4HjjZU2-22" value="Dev/rank" style="rounded=0;whiteSpace=wrap;html=1;align=left;verticalAlign=top;" vertex="1" parent="1">
          <mxGeometry x="160" y="330" width="190" height="130" as="geometry" />
        </mxCell>
        <mxCell id="uYfRyXN79F69b4HjjZU2-23" value="Cluster/cluster_id" style="rounded=0;whiteSpace=wrap;html=1;align=left;verticalAlign=top;" vertex="1" parent="1">
          <mxGeometry x="180" y="380" width="110" height="40" as="geometry" />
        </mxCell>
        <mxCell id="uYfRyXN79F69b4HjjZU2-24" value="Cluster/cluster_id" style="rounded=0;whiteSpace=wrap;html=1;align=left;verticalAlign=top;" vertex="1" parent="1">
          <mxGeometry x="190" y="390" width="110" height="40" as="geometry" />
        </mxCell>
        <mxCell id="uYfRyXN79F69b4HjjZU2-25" value="Cluster/cluster_id" style="rounded=0;whiteSpace=wrap;html=1;align=left;verticalAlign=top;" vertex="1" parent="1">
          <mxGeometry x="200" y="400" width="110" height="40" as="geometry" />
        </mxCell>
        <mxCell id="uYfRyXN79F69b4HjjZU2-26" value="Cluster/cluster_id" style="rounded=0;whiteSpace=wrap;html=1;align=left;verticalAlign=top;" vertex="1" parent="1">
          <mxGeometry x="210" y="410" width="110" height="40" as="geometry" />
        </mxCell>
        <mxCell id="uYfRyXN79F69b4HjjZU2-27" value="Dev/rank" style="rounded=0;whiteSpace=wrap;html=1;align=left;verticalAlign=top;" vertex="1" parent="1">
          <mxGeometry x="170" y="340" width="190" height="130" as="geometry" />
        </mxCell>
        <mxCell id="uYfRyXN79F69b4HjjZU2-28" value="Cluster/cluster_id" style="rounded=0;whiteSpace=wrap;html=1;align=left;verticalAlign=top;" vertex="1" parent="1">
          <mxGeometry x="190" y="390" width="110" height="40" as="geometry" />
        </mxCell>
        <mxCell id="uYfRyXN79F69b4HjjZU2-29" value="Cluster/cluster_id" style="rounded=0;whiteSpace=wrap;html=1;align=left;verticalAlign=top;" vertex="1" parent="1">
          <mxGeometry x="200" y="400" width="110" height="40" as="geometry" />
        </mxCell>
        <mxCell id="uYfRyXN79F69b4HjjZU2-30" value="Cluster/cluster_id" style="rounded=0;whiteSpace=wrap;html=1;align=left;verticalAlign=top;" vertex="1" parent="1">
          <mxGeometry x="210" y="410" width="110" height="40" as="geometry" />
        </mxCell>
        <mxCell id="uYfRyXN79F69b4HjjZU2-57" value="Dev/rank" style="rounded=0;whiteSpace=wrap;html=1;align=left;verticalAlign=top;" vertex="1" parent="1">
          <mxGeometry x="135" y="460" width="190" height="130" as="geometry" />
        </mxCell>
        <mxCell id="uYfRyXN79F69b4HjjZU2-58" value="Cluster/cluster_id" style="rounded=0;whiteSpace=wrap;html=1;align=left;verticalAlign=top;" vertex="1" parent="1">
          <mxGeometry x="155" y="510" width="110" height="40" as="geometry" />
        </mxCell>
        <mxCell id="uYfRyXN79F69b4HjjZU2-59" value="Cluster/cluster_id" style="rounded=0;whiteSpace=wrap;html=1;align=left;verticalAlign=top;" vertex="1" parent="1">
          <mxGeometry x="165" y="520" width="110" height="40" as="geometry" />
        </mxCell>
        <mxCell id="uYfRyXN79F69b4HjjZU2-60" value="Cluster/cluster_id" style="rounded=0;whiteSpace=wrap;html=1;align=left;verticalAlign=top;" vertex="1" parent="1">
          <mxGeometry x="175" y="530" width="110" height="40" as="geometry" />
        </mxCell>
        <mxCell id="uYfRyXN79F69b4HjjZU2-61" value="Cluster/cluster_id" style="rounded=0;whiteSpace=wrap;html=1;align=left;verticalAlign=top;" vertex="1" parent="1">
          <mxGeometry x="185" y="540" width="110" height="40" as="geometry" />
        </mxCell>
        <mxCell id="uYfRyXN79F69b4HjjZU2-62" value="Dev/rank" style="rounded=0;whiteSpace=wrap;html=1;align=left;verticalAlign=top;" vertex="1" parent="1">
          <mxGeometry x="145" y="470" width="190" height="130" as="geometry" />
        </mxCell>
        <mxCell id="uYfRyXN79F69b4HjjZU2-63" value="Cluster/cluster_id" style="rounded=0;whiteSpace=wrap;html=1;align=left;verticalAlign=top;" vertex="1" parent="1">
          <mxGeometry x="165" y="520" width="110" height="40" as="geometry" />
        </mxCell>
        <mxCell id="uYfRyXN79F69b4HjjZU2-64" value="Cluster/cluster_id" style="rounded=0;whiteSpace=wrap;html=1;align=left;verticalAlign=top;" vertex="1" parent="1">
          <mxGeometry x="175" y="530" width="110" height="40" as="geometry" />
        </mxCell>
        <mxCell id="uYfRyXN79F69b4HjjZU2-65" value="Cluster/cluster_id" style="rounded=0;whiteSpace=wrap;html=1;align=left;verticalAlign=top;" vertex="1" parent="1">
          <mxGeometry x="185" y="540" width="110" height="40" as="geometry" />
        </mxCell>
        <mxCell id="uYfRyXN79F69b4HjjZU2-66" value="Cluster/cluster_id" style="rounded=0;whiteSpace=wrap;html=1;align=left;verticalAlign=top;" vertex="1" parent="1">
          <mxGeometry x="195" y="550" width="110" height="40" as="geometry" />
        </mxCell>
        <mxCell id="uYfRyXN79F69b4HjjZU2-67" value="Dev/rank" style="rounded=0;whiteSpace=wrap;html=1;align=left;verticalAlign=top;" vertex="1" parent="1">
          <mxGeometry x="155" y="480" width="190" height="130" as="geometry" />
        </mxCell>
        <mxCell id="uYfRyXN79F69b4HjjZU2-68" value="Cluster/cluster_id" style="rounded=0;whiteSpace=wrap;html=1;align=left;verticalAlign=top;" vertex="1" parent="1">
          <mxGeometry x="175" y="530" width="110" height="40" as="geometry" />
        </mxCell>
        <mxCell id="uYfRyXN79F69b4HjjZU2-69" value="Cluster/cluster_id" style="rounded=0;whiteSpace=wrap;html=1;align=left;verticalAlign=top;" vertex="1" parent="1">
          <mxGeometry x="185" y="540" width="110" height="40" as="geometry" />
        </mxCell>
        <mxCell id="uYfRyXN79F69b4HjjZU2-70" value="Cluster/cluster_id" style="rounded=0;whiteSpace=wrap;html=1;align=left;verticalAlign=top;" vertex="1" parent="1">
          <mxGeometry x="195" y="550" width="110" height="40" as="geometry" />
        </mxCell>
        <mxCell id="uYfRyXN79F69b4HjjZU2-71" value="Cluster/cluster_id" style="rounded=0;whiteSpace=wrap;html=1;align=left;verticalAlign=top;" vertex="1" parent="1">
          <mxGeometry x="205" y="560" width="110" height="40" as="geometry" />
        </mxCell>
        <mxCell id="uYfRyXN79F69b4HjjZU2-72" value="Dev/rank" style="rounded=0;whiteSpace=wrap;html=1;align=left;verticalAlign=top;" vertex="1" parent="1">
          <mxGeometry x="165" y="490" width="190" height="130" as="geometry" />
        </mxCell>
        <mxCell id="uYfRyXN79F69b4HjjZU2-73" value="Cluster/cluster_id" style="rounded=0;whiteSpace=wrap;html=1;align=left;verticalAlign=top;" vertex="1" parent="1">
          <mxGeometry x="185" y="540" width="110" height="40" as="geometry" />
        </mxCell>
        <mxCell id="uYfRyXN79F69b4HjjZU2-74" value="Cluster/cluster_id" style="rounded=0;whiteSpace=wrap;html=1;align=left;verticalAlign=top;" vertex="1" parent="1">
          <mxGeometry x="195" y="550" width="110" height="40" as="geometry" />
        </mxCell>
        <mxCell id="uYfRyXN79F69b4HjjZU2-75" value="Cluster/cluster_id" style="rounded=0;whiteSpace=wrap;html=1;align=left;verticalAlign=top;" vertex="1" parent="1">
          <mxGeometry x="205" y="560" width="110" height="40" as="geometry" />
        </mxCell>
        <mxCell id="uYfRyXN79F69b4HjjZU2-76" value="Cluster/cluster_id" style="rounded=0;whiteSpace=wrap;html=1;align=left;verticalAlign=top;" vertex="1" parent="1">
          <mxGeometry x="215" y="570" width="110" height="40" as="geometry" />
        </mxCell>
        <mxCell id="uYfRyXN79F69b4HjjZU2-77" value="Cluster/cluster_id" style="rounded=0;whiteSpace=wrap;html=1;align=left;verticalAlign=top;fillColor=#ffe6cc;strokeColor=#d79b00;" vertex="1" parent="1">
          <mxGeometry x="220" y="420" width="110" height="40" as="geometry" />
        </mxCell>
        <mxCell id="uYfRyXN79F69b4HjjZU2-78" value="Server/node_id" style="rounded=0;whiteSpace=wrap;html=1;align=left;verticalAlign=top;" vertex="1" parent="1">
          <mxGeometry x="414" y="265" width="280" height="395" as="geometry" />
        </mxCell>
        <mxCell id="uYfRyXN79F69b4HjjZU2-79" value="Dev/rank" style="rounded=0;whiteSpace=wrap;html=1;align=left;verticalAlign=top;" vertex="1" parent="1">
          <mxGeometry x="444" y="310" width="190" height="130" as="geometry" />
        </mxCell>
        <mxCell id="uYfRyXN79F69b4HjjZU2-80" value="Cluster/cluster_id" style="rounded=0;whiteSpace=wrap;html=1;align=left;verticalAlign=top;" vertex="1" parent="1">
          <mxGeometry x="464" y="360" width="110" height="40" as="geometry" />
        </mxCell>
        <mxCell id="uYfRyXN79F69b4HjjZU2-81" value="Cluster/cluster_id" style="rounded=0;whiteSpace=wrap;html=1;align=left;verticalAlign=top;" vertex="1" parent="1">
          <mxGeometry x="474" y="370" width="110" height="40" as="geometry" />
        </mxCell>
        <mxCell id="uYfRyXN79F69b4HjjZU2-82" value="Cluster/cluster_id" style="rounded=0;whiteSpace=wrap;html=1;align=left;verticalAlign=top;" vertex="1" parent="1">
          <mxGeometry x="484" y="380" width="110" height="40" as="geometry" />
        </mxCell>
        <mxCell id="uYfRyXN79F69b4HjjZU2-83" value="Cluster/cluster_id" style="rounded=0;whiteSpace=wrap;html=1;align=left;verticalAlign=top;" vertex="1" parent="1">
          <mxGeometry x="494" y="390" width="110" height="40" as="geometry" />
        </mxCell>
        <mxCell id="uYfRyXN79F69b4HjjZU2-84" value="Dev/rank" style="rounded=0;whiteSpace=wrap;html=1;align=left;verticalAlign=top;" vertex="1" parent="1">
          <mxGeometry x="454" y="320" width="190" height="130" as="geometry" />
        </mxCell>
        <mxCell id="uYfRyXN79F69b4HjjZU2-85" value="Cluster/cluster_id" style="rounded=0;whiteSpace=wrap;html=1;align=left;verticalAlign=top;" vertex="1" parent="1">
          <mxGeometry x="474" y="370" width="110" height="40" as="geometry" />
        </mxCell>
        <mxCell id="uYfRyXN79F69b4HjjZU2-86" value="Cluster/cluster_id" style="rounded=0;whiteSpace=wrap;html=1;align=left;verticalAlign=top;" vertex="1" parent="1">
          <mxGeometry x="484" y="380" width="110" height="40" as="geometry" />
        </mxCell>
        <mxCell id="uYfRyXN79F69b4HjjZU2-87" value="Cluster/cluster_id" style="rounded=0;whiteSpace=wrap;html=1;align=left;verticalAlign=top;" vertex="1" parent="1">
          <mxGeometry x="494" y="390" width="110" height="40" as="geometry" />
        </mxCell>
        <mxCell id="uYfRyXN79F69b4HjjZU2-88" value="Cluster/cluster_id" style="rounded=0;whiteSpace=wrap;html=1;align=left;verticalAlign=top;" vertex="1" parent="1">
          <mxGeometry x="504" y="400" width="110" height="40" as="geometry" />
        </mxCell>
        <mxCell id="uYfRyXN79F69b4HjjZU2-89" value="Dev/rank" style="rounded=0;whiteSpace=wrap;html=1;align=left;verticalAlign=top;" vertex="1" parent="1">
          <mxGeometry x="464" y="330" width="190" height="130" as="geometry" />
        </mxCell>
        <mxCell id="uYfRyXN79F69b4HjjZU2-90" value="Cluster/cluster_id" style="rounded=0;whiteSpace=wrap;html=1;align=left;verticalAlign=top;" vertex="1" parent="1">
          <mxGeometry x="484" y="380" width="110" height="40" as="geometry" />
        </mxCell>
        <mxCell id="uYfRyXN79F69b4HjjZU2-91" value="Cluster/cluster_id" style="rounded=0;whiteSpace=wrap;html=1;align=left;verticalAlign=top;" vertex="1" parent="1">
          <mxGeometry x="494" y="390" width="110" height="40" as="geometry" />
        </mxCell>
        <mxCell id="uYfRyXN79F69b4HjjZU2-92" value="Cluster/cluster_id" style="rounded=0;whiteSpace=wrap;html=1;align=left;verticalAlign=top;" vertex="1" parent="1">
          <mxGeometry x="504" y="400" width="110" height="40" as="geometry" />
        </mxCell>
        <mxCell id="uYfRyXN79F69b4HjjZU2-93" value="Cluster/cluster_id" style="rounded=0;whiteSpace=wrap;html=1;align=left;verticalAlign=top;" vertex="1" parent="1">
          <mxGeometry x="514" y="410" width="110" height="40" as="geometry" />
        </mxCell>
        <mxCell id="uYfRyXN79F69b4HjjZU2-94" value="Dev/rank(11)/local_rank(3)" style="rounded=0;whiteSpace=wrap;html=1;align=left;verticalAlign=top;" vertex="1" parent="1">
          <mxGeometry x="474" y="340" width="190" height="130" as="geometry" />
        </mxCell>
        <mxCell id="uYfRyXN79F69b4HjjZU2-95" value="Cluster/cluster_id" style="rounded=0;whiteSpace=wrap;html=1;align=left;verticalAlign=top;" vertex="1" parent="1">
          <mxGeometry x="494" y="390" width="110" height="40" as="geometry" />
        </mxCell>
        <mxCell id="uYfRyXN79F69b4HjjZU2-96" value="Cluster/cluster_id" style="rounded=0;whiteSpace=wrap;html=1;align=left;verticalAlign=top;" vertex="1" parent="1">
          <mxGeometry x="504" y="400" width="110" height="40" as="geometry" />
        </mxCell>
        <mxCell id="uYfRyXN79F69b4HjjZU2-97" value="Cluster/cluster_id" style="rounded=0;whiteSpace=wrap;html=1;align=left;verticalAlign=top;" vertex="1" parent="1">
          <mxGeometry x="514" y="410" width="110" height="40" as="geometry" />
        </mxCell>
        <mxCell id="uYfRyXN79F69b4HjjZU2-98" value="Dev/rank" style="rounded=0;whiteSpace=wrap;html=1;align=left;verticalAlign=top;" vertex="1" parent="1">
          <mxGeometry x="439" y="460" width="190" height="130" as="geometry" />
        </mxCell>
        <mxCell id="uYfRyXN79F69b4HjjZU2-99" value="Cluster/cluster_id" style="rounded=0;whiteSpace=wrap;html=1;align=left;verticalAlign=top;" vertex="1" parent="1">
          <mxGeometry x="459" y="510" width="110" height="40" as="geometry" />
        </mxCell>
        <mxCell id="uYfRyXN79F69b4HjjZU2-100" value="Cluster/cluster_id" style="rounded=0;whiteSpace=wrap;html=1;align=left;verticalAlign=top;" vertex="1" parent="1">
          <mxGeometry x="469" y="520" width="110" height="40" as="geometry" />
        </mxCell>
        <mxCell id="uYfRyXN79F69b4HjjZU2-101" value="Cluster/cluster_id" style="rounded=0;whiteSpace=wrap;html=1;align=left;verticalAlign=top;" vertex="1" parent="1">
          <mxGeometry x="479" y="530" width="110" height="40" as="geometry" />
        </mxCell>
        <mxCell id="uYfRyXN79F69b4HjjZU2-102" value="Cluster/cluster_id" style="rounded=0;whiteSpace=wrap;html=1;align=left;verticalAlign=top;" vertex="1" parent="1">
          <mxGeometry x="489" y="540" width="110" height="40" as="geometry" />
        </mxCell>
        <mxCell id="uYfRyXN79F69b4HjjZU2-103" value="Dev/rank" style="rounded=0;whiteSpace=wrap;html=1;align=left;verticalAlign=top;" vertex="1" parent="1">
          <mxGeometry x="449" y="470" width="190" height="130" as="geometry" />
        </mxCell>
        <mxCell id="uYfRyXN79F69b4HjjZU2-104" value="Cluster/cluster_id" style="rounded=0;whiteSpace=wrap;html=1;align=left;verticalAlign=top;" vertex="1" parent="1">
          <mxGeometry x="469" y="520" width="110" height="40" as="geometry" />
        </mxCell>
        <mxCell id="uYfRyXN79F69b4HjjZU2-105" value="Cluster/cluster_id" style="rounded=0;whiteSpace=wrap;html=1;align=left;verticalAlign=top;" vertex="1" parent="1">
          <mxGeometry x="479" y="530" width="110" height="40" as="geometry" />
        </mxCell>
        <mxCell id="uYfRyXN79F69b4HjjZU2-106" value="Cluster/cluster_id" style="rounded=0;whiteSpace=wrap;html=1;align=left;verticalAlign=top;" vertex="1" parent="1">
          <mxGeometry x="489" y="540" width="110" height="40" as="geometry" />
        </mxCell>
        <mxCell id="uYfRyXN79F69b4HjjZU2-107" value="Cluster/cluster_id" style="rounded=0;whiteSpace=wrap;html=1;align=left;verticalAlign=top;" vertex="1" parent="1">
          <mxGeometry x="499" y="550" width="110" height="40" as="geometry" />
        </mxCell>
        <mxCell id="uYfRyXN79F69b4HjjZU2-108" value="Dev/rank" style="rounded=0;whiteSpace=wrap;html=1;align=left;verticalAlign=top;" vertex="1" parent="1">
          <mxGeometry x="459" y="480" width="190" height="130" as="geometry" />
        </mxCell>
        <mxCell id="uYfRyXN79F69b4HjjZU2-109" value="Cluster/cluster_id" style="rounded=0;whiteSpace=wrap;html=1;align=left;verticalAlign=top;" vertex="1" parent="1">
          <mxGeometry x="479" y="530" width="110" height="40" as="geometry" />
        </mxCell>
        <mxCell id="uYfRyXN79F69b4HjjZU2-110" value="Cluster/cluster_id" style="rounded=0;whiteSpace=wrap;html=1;align=left;verticalAlign=top;" vertex="1" parent="1">
          <mxGeometry x="489" y="540" width="110" height="40" as="geometry" />
        </mxCell>
        <mxCell id="uYfRyXN79F69b4HjjZU2-111" value="Cluster/cluster_id" style="rounded=0;whiteSpace=wrap;html=1;align=left;verticalAlign=top;" vertex="1" parent="1">
          <mxGeometry x="499" y="550" width="110" height="40" as="geometry" />
        </mxCell>
        <mxCell id="uYfRyXN79F69b4HjjZU2-112" value="Cluster/cluster_id" style="rounded=0;whiteSpace=wrap;html=1;align=left;verticalAlign=top;" vertex="1" parent="1">
          <mxGeometry x="509" y="560" width="110" height="40" as="geometry" />
        </mxCell>
        <mxCell id="uYfRyXN79F69b4HjjZU2-113" value="Dev/rank" style="rounded=0;whiteSpace=wrap;html=1;align=left;verticalAlign=top;" vertex="1" parent="1">
          <mxGeometry x="469" y="490" width="190" height="130" as="geometry" />
        </mxCell>
        <mxCell id="uYfRyXN79F69b4HjjZU2-114" value="Cluster/cluster_id" style="rounded=0;whiteSpace=wrap;html=1;align=left;verticalAlign=top;" vertex="1" parent="1">
          <mxGeometry x="489" y="540" width="110" height="40" as="geometry" />
        </mxCell>
        <mxCell id="uYfRyXN79F69b4HjjZU2-115" value="Cluster/cluster_id" style="rounded=0;whiteSpace=wrap;html=1;align=left;verticalAlign=top;" vertex="1" parent="1">
          <mxGeometry x="499" y="550" width="110" height="40" as="geometry" />
        </mxCell>
        <mxCell id="uYfRyXN79F69b4HjjZU2-116" value="Cluster/cluster_id" style="rounded=0;whiteSpace=wrap;html=1;align=left;verticalAlign=top;" vertex="1" parent="1">
          <mxGeometry x="509" y="560" width="110" height="40" as="geometry" />
        </mxCell>
        <mxCell id="uYfRyXN79F69b4HjjZU2-117" value="Cluster/cluster_id" style="rounded=0;whiteSpace=wrap;html=1;align=left;verticalAlign=top;" vertex="1" parent="1">
          <mxGeometry x="519" y="570" width="110" height="40" as="geometry" />
        </mxCell>
        <mxCell id="uYfRyXN79F69b4HjjZU2-118" value="Cluster/cluster_id" style="rounded=0;whiteSpace=wrap;html=1;align=left;verticalAlign=top;fillColor=#ffe6cc;strokeColor=#d79b00;" vertex="1" parent="1">
          <mxGeometry x="524" y="420" width="110" height="40" as="geometry" />
        </mxCell>
        <mxCell id="uYfRyXN79F69b4HjjZU2-121" value="HostECCLActivity" style="edgeLabel;html=1;align=center;verticalAlign=middle;resizable=0;points=[];" vertex="1" connectable="0" parent="1">
          <mxGeometry x="0.1596" y="1" relative="1" as="geometry">
            <mxPoint x="118.96000000000001" y="121.32" as="offset" />
          </mxGeometry>
        </mxCell>
        <mxCell id="uYfRyXN79F69b4HjjZU2-122" value="HostECCLActivity" style="edgeLabel;html=1;align=center;verticalAlign=middle;resizable=0;points=[];" vertex="1" connectable="0" parent="1">
          <mxGeometry x="648.9990398816142" y="600.0014415092678" as="geometry" />
        </mxCell>
      </root>
    </mxGraphModel>
  </diagram>
</mxfile>
